<svg width="14" height="14" viewBox="0 0 14 14" fill="none" xmlns="http://www.w3.org/2000/svg">
<path d="M8.75 12.2503H2.91667C2.27233 12.2503 1.75 11.728 1.75 11.0837V5.83366H12.25V8.75033M8.75 2.33366V1.16699M8.75 2.33366V3.50033M8.75 2.33366H6.125" stroke="#303030" stroke-width="1.5" stroke-linecap="round" stroke-linejoin="round"/>
<path d="M1.75 5.83301V3.49967C1.75 2.85534 2.27233 2.33301 2.91667 2.33301H4.08333" stroke="#303030" stroke-width="1.5" stroke-linecap="round" stroke-linejoin="round"/>
<path d="M4.08301 1.16699V3.50033" stroke="#303030" stroke-width="1.5" stroke-linecap="round" stroke-linejoin="round"/>
<path d="M12.2503 5.83301V3.49967C12.2503 2.85534 11.728 2.33301 11.0837 2.33301H10.792" stroke="#303030" stroke-width="1.5" stroke-linecap="round" stroke-linejoin="round"/>
<path d="M10.5 12.9748L11.7374 11.7374M11.7374 11.7374L12.9748 10.5M11.7374 11.7374L10.5 10.5M11.7374 11.7374L12.9748 12.9748" stroke="#303030" stroke-width="1.5" stroke-linecap="round" stroke-linejoin="round"/>
</svg>
