<svg width="16" height="16" viewBox="0 0 16 16" fill="none" xmlns="http://www.w3.org/2000/svg">
<path d="M9.33301 13.5997V9.73301C9.33301 9.51207 9.51207 9.33301 9.73301 9.33301H13.5997C13.8206 9.33301 13.9997 9.51207 13.9997 9.73301V13.5997C13.9997 13.8206 13.8206 13.9997 13.5997 13.9997H9.73301C9.51207 13.9997 9.33301 13.8206 9.33301 13.5997Z" stroke="#303030" stroke-width="1.5"/>
<path d="M2 13.5997V9.73301C2 9.51207 2.17909 9.33301 2.4 9.33301H6.26667C6.48758 9.33301 6.66667 9.51207 6.66667 9.73301V13.5997C6.66667 13.8206 6.48758 13.9997 6.26667 13.9997H2.4C2.17909 13.9997 2 13.8206 2 13.5997Z" stroke="#303030" stroke-width="1.5"/>
<path d="M9.33301 6.26667V2.4C9.33301 2.17909 9.51207 2 9.73301 2H13.5997C13.8206 2 13.9997 2.17909 13.9997 2.4V6.26667C13.9997 6.48758 13.8206 6.66667 13.5997 6.66667H9.73301C9.51207 6.66667 9.33301 6.48758 9.33301 6.26667Z" stroke="#303030" stroke-width="1.5"/>
<path d="M2 6.26667V2.4C2 2.17909 2.17909 2 2.4 2H6.26667C6.48758 2 6.66667 2.17909 6.66667 2.4V6.26667C6.66667 6.48758 6.48758 6.66667 6.26667 6.66667H2.4C2.17909 6.66667 2 6.48758 2 6.26667Z" stroke="#303030" stroke-width="1.5"/>
</svg>
