<svg width="16" height="16" viewBox="0 0 16 16" fill="none" xmlns="http://www.w3.org/2000/svg">
<g clip-path="url(#clip0_11_653)">
<path d="M8 10C9.1046 10 10 9.1046 10 8C10 6.8954 9.1046 6 8 6C6.8954 6 6 6.8954 6 8C6 9.1046 6.8954 10 8 10Z" stroke="#303030" stroke-width="1.5" stroke-linecap="round" stroke-linejoin="round"/>
<path d="M13.0813 6.92994L12.3495 5.16287L13.333 3.99967L11.9997 2.66634L10.8428 3.65497L9.03821 2.91283L8.62321 1.33301H7.32034L6.89907 2.93376L5.13595 3.67698L3.99967 2.66634L2.66634 3.99967L3.63525 5.19224L2.91467 6.96387L1.33301 7.33301V8.66634L2.93375 9.10334L3.67684 10.8661L2.66634 11.9997L3.99967 13.333L5.19378 12.3599L6.93101 13.0745L7.33301 14.6663H8.66634L9.06934 13.0751L10.8364 12.3433C11.1309 12.5539 11.9997 13.333 11.9997 13.333L13.333 11.9997L12.3436 10.8326L13.0756 9.06501L14.6663 8.65114L14.6663 7.33301L13.0813 6.92994Z" stroke="#303030" stroke-width="1.5" stroke-linecap="round" stroke-linejoin="round"/>
</g>
<defs>
<clipPath id="clip0_11_653">
<rect width="16" height="16" fill="white"/>
</clipPath>
</defs>
</svg>
