<svg width="16" height="16" viewBox="0 0 16 16" fill="none" xmlns="http://www.w3.org/2000/svg">
<path fill-rule="evenodd" clip-rule="evenodd" d="M2 6.16699C1.72386 6.16699 1.5 6.39085 1.5 6.66699V12.667C1.5 13.6795 2.32081 14.5003 3.33333 14.5003H10.6667C10.7993 14.5003 10.9265 14.4477 11.0202 14.3539L11.2071 14.167H10.6615C9.833 14.167 9.16147 13.4954 9.16147 12.667C9.16147 11.8386 9.833 11.167 10.6615 11.167H14.2071L14.3535 11.0205C14.4473 10.9268 14.5 10.7996 14.5 10.667V6.66699C14.5 6.39085 14.2761 6.16699 14 6.16699H2Z" fill="#0A84FF"/>
<path fill-rule="evenodd" clip-rule="evenodd" d="M14 6.16699C14.2761 6.16699 14.5 6.39085 14.5 6.66699V12.667C14.5 13.6795 13.6792 14.5003 12.6667 14.5003H5.33333C5.20073 14.5003 5.07353 14.4477 4.9798 14.3539L4.79287 14.167H5.33853C6.167 14.167 6.83853 13.4954 6.83853 12.667C6.83853 11.8386 6.167 11.167 5.33853 11.167H1.79287L1.64647 11.0205C1.55267 10.9268 1.5 10.7996 1.5 10.667V6.66699C1.5 6.39085 1.72387 6.16699 2 6.16699H14Z" fill="#0A84FF"/>
<path fill-rule="evenodd" clip-rule="evenodd" d="M4.66667 0.833008C4.94281 0.833008 5.16667 1.05687 5.16667 1.33301V3.99967C5.16667 4.27581 4.94281 4.49967 4.66667 4.49967C4.39053 4.49967 4.16667 4.27581 4.16667 3.99967V3.16634H3.33333C2.87309 3.16634 2.5 3.53943 2.5 3.99967V6.66634C2.5 6.94247 2.27614 7.16634 2 7.16634C1.72386 7.16634 1.5 6.94247 1.5 6.66634V3.99967C1.5 2.98715 2.32081 2.16634 3.33333 2.16634H4.16667V1.33301C4.16667 1.05687 4.39053 0.833008 4.66667 0.833008ZM10 0.833008C10.2761 0.833008 10.5 1.05687 10.5 1.33301V3.99967C10.5 4.27581 10.2761 4.49967 10 4.49967C9.72387 4.49967 9.5 4.27581 9.5 3.99967V3.16634H7C6.72387 3.16634 6.5 2.94248 6.5 2.66634C6.5 2.3902 6.72387 2.16634 7 2.16634H9.5V1.33301C9.5 1.05687 9.72387 0.833008 10 0.833008ZM11.8333 2.66634C11.8333 2.3902 12.0572 2.16634 12.3333 2.16634H12.6667C13.6792 2.16634 14.5 2.98715 14.5 3.99967V6.66634C14.5 6.94247 14.2761 7.16634 14 7.16634C13.7239 7.16634 13.5 6.94247 13.5 6.66634V3.99967C13.5 3.53943 13.1269 3.16634 12.6667 3.16634H12.3333C12.0572 3.16634 11.8333 2.94248 11.8333 2.66634Z" fill="#0A84FF"/>
</svg>
