<svg width="16" height="16" viewBox="0 0 16 16" fill="none" xmlns="http://www.w3.org/2000/svg">
<g clip-path="url(#clip0_11_176)">
<path d="M0.666992 13.3333V12.6667C0.666992 10.0893 2.75633 8 5.33366 8C7.91099 8 10.0003 10.0893 10.0003 12.6667V13.3333" stroke="#303030" stroke-width="1.5" stroke-linecap="round"/>
<path d="M8.66699 9.33333C8.66699 7.4924 10.1594 6 12.0003 6C13.8413 6 15.3337 7.4924 15.3337 9.33333V9.66667" stroke="#303030" stroke-width="1.5" stroke-linecap="round"/>
<path d="M5.33366 8.00033C6.80639 8.00033 8.00033 6.80639 8.00033 5.33366C8.00033 3.8609 6.80639 2.66699 5.33366 2.66699C3.8609 2.66699 2.66699 3.8609 2.66699 5.33366C2.66699 6.80639 3.8609 8.00033 5.33366 8.00033Z" stroke="#303030" stroke-width="1.5" stroke-linecap="round" stroke-linejoin="round"/>
<path d="M12 6C13.1046 6 14 5.10457 14 4C14 2.89543 13.1046 2 12 2C10.8954 2 10 2.89543 10 4C10 5.10457 10.8954 6 12 6Z" stroke="#303030" stroke-width="1.5" stroke-linecap="round" stroke-linejoin="round"/>
</g>
<defs>
<clipPath id="clip0_11_176">
<rect width="16" height="16" fill="white"/>
</clipPath>
</defs>
</svg>
