<svg width="14" height="15" viewBox="0 0 14 15" fill="none" xmlns="http://www.w3.org/2000/svg">
<path d="M6.12467 3.02539V5.74807C6.12467 5.86875 6.06249 5.98091 5.96017 6.04487L1.62251 8.75588C1.52017 8.81987 1.45801 8.93205 1.45801 9.05268V9.5771C1.45801 9.80483 1.67199 9.9719 1.89289 9.91666L5.68979 8.96746C5.91071 8.91222 6.12467 9.07928 6.12467 9.30702V11.0332C6.12467 11.1342 6.0811 11.2302 6.00515 11.2966L4.74498 12.3993C4.47763 12.6332 4.68855 13.0706 5.03806 13.007L6.93708 12.6618C6.97844 12.6542 7.02091 12.6542 7.06227 12.6618L8.96131 13.007C9.31078 13.0706 9.52172 12.6332 9.25437 12.3993L7.9942 11.2966C7.91825 11.2302 7.87467 11.1342 7.87467 11.0332V9.30702C7.87467 9.07928 8.08864 8.91222 8.30955 8.96746L12.1065 9.91666C12.3274 9.9719 12.5413 9.80483 12.5413 9.5771V9.05268C12.5413 8.93205 12.4792 8.81987 12.3768 8.75588L8.03917 6.04487C7.93686 5.98091 7.87467 5.86875 7.87467 5.74807V3.02539C7.87467 2.54214 7.48291 2.15039 6.99967 2.15039C6.51644 2.15039 6.12467 2.54214 6.12467 3.02539Z" stroke="#303030" stroke-linecap="round" stroke-linejoin="round"/>
<path d="M6.12565 3.02539V5.74807C6.12565 5.86875 6.06347 5.98091 5.96115 6.04487L1.62348 8.75588C1.52115 8.81987 1.45898 8.93205 1.45898 9.05268V9.5771C1.45898 9.80483 1.67297 9.9719 1.89387 9.91666L5.69076 8.96746C5.91168 8.91222 6.12565 9.07928 6.12565 9.30702V11.0332C6.12565 11.1342 6.08208 11.2302 6.00613 11.2966L4.74596 12.3993C4.47861 12.6332 4.68953 13.0706 5.03904 13.007L6.93806 12.6618C6.97942 12.6542 7.02188 12.6542 7.06324 12.6618L8.96228 13.007C9.31176 13.0706 9.52269 12.6332 9.25535 12.3993L7.99518 11.2966C7.91923 11.2302 7.87565 11.1342 7.87565 11.0332V9.30702C7.87565 9.07928 8.08962 8.91222 8.31053 8.96746L12.1074 9.91666C12.3284 9.9719 12.5423 9.80483 12.5423 9.5771V9.05268C12.5423 8.93205 12.4801 8.81987 12.3778 8.75588L8.04015 6.04487C7.93783 5.98091 7.87565 5.86875 7.87565 5.74807V3.02539C7.87565 2.54214 7.48388 2.15039 7.00065 2.15039C6.51742 2.15039 6.12565 2.54214 6.12565 3.02539Z" stroke="#8769D2" stroke-opacity="0.75" stroke-linecap="round" stroke-linejoin="round"/>
</svg>
